<svg width="1440" height="227" viewBox="0 0 1440 227" fill="none" xmlns="http://www.w3.org/2000/svg">
<path d="M134.758 6.83984V3.83984H132.64L131.931 5.83541L134.758 6.83984ZM161.564 6.83984L164.387 7.85716L165.835 3.83984H161.564V6.83984ZM84.3672 221V224H86.4747L87.1894 222.017L84.3672 221ZM59.7578 221L56.9337 222.012L57.6462 224H59.7578V221ZM-17 6.83984V3.83984H-21.2621L-19.8241 7.85203L-17 6.83984ZM9.36719 6.83984L12.1942 5.83576L11.4853 3.83984H9.36719V6.83984ZM58.5859 145.414L55.759 146.418L55.7595 146.42L58.5859 145.414ZM72.0625 191.85L69.133 192.496L74.9911 192.5L72.0625 191.85ZM85.832 144.535L88.6545 145.552L88.6589 145.54L85.832 144.535ZM134.758 9.83984H161.564V3.83984H134.758V9.83984ZM158.742 5.82252L81.5449 219.983L87.1894 222.017L164.387 7.85716L158.742 5.82252ZM84.3672 218H59.7578V224H84.3672V218ZM62.5819 219.988L-14.1759 5.82765L-19.8241 7.85203L56.9337 222.012L62.5819 219.988ZM-17 9.83984H9.36719V3.83984H-17V9.83984ZM6.54021 7.84393L55.759 146.418L61.4129 144.41L12.1942 5.83576L6.54021 7.84393ZM55.7595 146.42C61.3858 162.231 65.842 177.59 69.133 192.496L74.992 191.203C71.6423 176.031 67.1142 160.433 61.4123 144.408L55.7595 146.42ZM74.9911 192.5C78.4783 176.808 83.0322 161.159 88.6545 145.552L83.0096 143.518C77.3038 159.357 72.678 175.251 69.1339 191.199L74.9911 192.5ZM88.6589 145.54L137.585 7.84428L131.931 5.83541L83.0052 143.531L88.6589 145.54ZM325.773 221L322.98 222.093L323.726 224H325.773V221ZM299.113 152.885L301.907 151.791L301.161 149.885H299.113V152.885ZM213.273 152.885V149.885H211.218L210.476 151.802L213.273 152.885ZM186.906 221V224H188.962L189.704 222.083L186.906 221ZM161.711 221L158.92 219.901L157.306 224H161.711V221ZM246.379 5.96094V2.96094H244.336L243.587 4.86186L246.379 5.96094ZM267.326 5.96094L270.12 4.86681L269.373 2.96094H267.326V5.96094ZM351.555 221V224H355.952L354.348 219.906L351.555 221ZM291.35 130.473V133.473H295.68L294.158 129.419L291.35 130.473ZM266.447 64.1152L269.256 63.0612L269.252 63.0508L269.248 63.0405L266.447 64.1152ZM256.486 33.207L259.375 32.3981L253.562 32.5369L256.486 33.207ZM247.258 64.1152L250.062 65.1801L250.073 65.1515L250.084 65.1227L247.258 64.1152ZM222.062 130.473L219.258 129.408L217.714 133.473H222.062V130.473ZM328.567 219.907L301.907 151.791L296.32 153.978L322.98 222.093L328.567 219.907ZM299.113 149.885H213.273V155.885H299.113V149.885ZM210.476 151.802L184.109 219.917L189.704 222.083L216.071 153.968L210.476 151.802ZM186.906 218H161.711V224H186.906V218ZM164.502 222.099L249.17 7.06001L243.587 4.86186L158.92 219.901L164.502 222.099ZM246.379 8.96094H267.326V2.96094H246.379V8.96094ZM264.533 7.05507L348.761 222.094L354.348 219.906L270.12 4.86681L264.533 7.05507ZM351.555 218H325.773V224H351.555V218ZM294.158 129.419L269.256 63.0612L263.639 65.1693L288.541 131.527L294.158 129.419ZM269.248 63.0405C266.069 54.7564 262.777 44.5484 259.375 32.3981L253.597 34.0159C257.031 46.2797 260.38 56.6772 263.646 65.19L269.248 63.0405ZM253.562 32.5369C251.445 41.7744 248.405 51.9628 244.432 63.1078L250.084 65.1227C254.118 53.8068 257.231 43.3896 259.411 33.8772L253.562 32.5369ZM244.453 63.0503L219.258 129.408L224.867 131.538L250.062 65.1801L244.453 63.0503ZM222.062 133.473H291.35V127.473H222.062V133.473ZM380.998 221H377.998V224H380.998V221ZM380.998 6.83984V3.83984H377.998V6.83984H380.998ZM405.9 6.83984H408.9V3.83984H405.9V6.83984ZM405.9 198.441H402.9V201.441H405.9V198.441ZM500.383 198.441H503.383V195.441H500.383V198.441ZM500.383 221V224H503.383V221H500.383ZM383.998 221V6.83984H377.998V221H383.998ZM380.998 9.83984H405.9V3.83984H380.998V9.83984ZM402.9 6.83984V198.441H408.9V6.83984H402.9ZM405.9 201.441H500.383V195.441H405.9V201.441ZM497.383 198.441V221H503.383V198.441H497.383ZM500.383 218H380.998V224H500.383V218ZM696.672 194.486L694.426 192.497L694.42 192.504L696.672 194.486ZM551.359 195.072L549.112 197.059L549.117 197.065L549.122 197.071L551.359 195.072ZM551.506 32.3281L553.738 34.3325L553.743 34.3268L551.506 32.3281ZM570.549 179.691L568.227 181.591L568.234 181.599L568.24 181.608L570.549 179.691ZM678.215 48.1484L675.877 50.0281L675.883 50.0365L675.89 50.0448L678.215 48.1484ZM570.549 48.2949L568.234 46.3862L568.233 46.3878L570.549 48.2949ZM719.746 113.627C719.746 147.402 711.189 173.568 694.426 192.497L698.918 196.475C716.92 176.147 725.746 148.407 725.746 113.627H719.746ZM694.42 192.504C677.808 211.368 654.623 220.93 624.455 220.93V226.93C656.006 226.93 680.965 216.862 698.923 196.469L694.42 192.504ZM624.455 220.93C593.56 220.93 570.091 211.536 553.597 193.074L549.122 197.071C567.003 217.085 592.264 226.93 624.455 226.93V220.93ZM553.607 193.086C537.154 174.469 528.725 148.025 528.725 113.334H522.725C522.725 148.955 531.385 177.003 549.112 197.059L553.607 193.086ZM528.725 113.334C528.725 78.945 537.198 52.7526 553.738 34.3325L549.274 30.3237C531.439 50.1849 522.725 77.9964 522.725 113.334H528.725ZM553.743 34.3268C570.235 15.8667 593.752 6.4707 624.748 6.4707V0.470703C592.463 0.470703 567.151 10.313 549.269 30.3294L553.743 34.3268ZM624.748 6.4707C654.82 6.4707 677.959 15.9847 694.572 34.7558L699.065 30.7794C681.107 10.488 656.2 0.470703 624.748 0.470703V6.4707ZM694.572 34.7558C711.234 53.5836 719.746 79.7472 719.746 113.627H725.746C725.746 78.7568 716.973 51.0141 699.065 30.7794L694.572 34.7558ZM549.092 113.627C549.092 142.995 555.313 165.808 568.227 181.591L572.871 177.792C561.175 163.497 555.092 142.267 555.092 113.627H549.092ZM568.24 181.608C581.334 197.381 600.236 205.104 624.455 205.104V199.104C601.604 199.104 584.569 191.885 572.857 177.775L568.24 181.608ZM624.455 205.104C648.858 205.104 667.735 197.387 680.546 181.58L675.884 177.802C664.476 191.878 647.513 199.104 624.455 199.104V205.104ZM680.546 181.58C693.261 165.891 699.379 143.079 699.379 113.627H693.379C693.379 142.378 687.387 163.609 675.884 177.802L680.546 181.58ZM699.379 113.627C699.379 84.4613 693.258 61.8428 680.539 46.2521L675.89 50.0448C687.39 64.1415 693.379 85.1754 693.379 113.627H699.379ZM680.553 46.2688C667.84 30.4556 649.057 22.7363 624.748 22.7363V28.7363C647.705 28.7363 664.566 35.9585 675.877 50.0281L680.553 46.2688ZM624.748 22.7363C600.336 22.7363 581.33 30.5063 568.234 46.3862L572.863 50.2036C584.572 36.0054 601.699 28.7363 624.748 28.7363V22.7363ZM568.233 46.3878C555.317 62.0711 549.092 84.6397 549.092 113.627H555.092C555.092 85.3877 561.171 64.4016 572.865 50.202L568.233 46.3878ZM795.549 131.938V128.938H792.549V131.938H795.549ZM795.549 221V224H798.549V221H795.549ZM770.646 221H767.646V224H770.646V221ZM770.646 6.83984V3.83984H767.646V6.83984H770.646ZM887.541 21.9277L885.66 24.265L885.669 24.2721L887.541 21.9277ZM863.371 124.76L862.388 121.925L858.887 123.14L860.803 126.311L863.371 124.76ZM921.525 221V224H926.843L924.093 219.448L921.525 221ZM892.082 221L889.489 222.509L890.357 224H892.082V221ZM840.227 131.938L842.819 130.428L841.951 128.938H840.227V131.938ZM795.549 110.551H792.549V113.551H795.549V110.551ZM868.352 100.15L870.288 102.442L870.296 102.435L870.304 102.428L868.352 100.15ZM868.059 38.041L866.254 40.4376L866.261 40.4427L866.268 40.4477L868.059 38.041ZM795.549 28.666V25.666H792.549V28.666H795.549ZM792.549 131.938V221H798.549V131.938H792.549ZM795.549 218H770.646V224H795.549V218ZM773.646 221V6.83984H767.646V221H773.646ZM770.646 9.83984H829.387V3.83984H770.646V9.83984ZM829.387 9.83984C855.375 9.83984 873.94 14.8337 885.66 24.265L889.422 19.5905C876.142 8.9046 855.937 3.83984 829.387 3.83984V9.83984ZM885.669 24.2721C897.377 33.6199 903.438 47.7815 903.438 67.3379H909.438C909.438 46.4646 902.901 30.3527 889.413 19.5834L885.669 24.2721ZM903.438 67.3379C903.438 80.9721 899.991 92.1731 893.271 101.134C886.538 110.111 876.331 117.088 862.388 121.925L864.354 127.594C879.122 122.47 890.449 114.897 898.071 104.734C905.706 94.5534 909.438 82.024 909.438 67.3379H903.438ZM860.803 126.311L918.958 222.552L924.093 219.448L865.939 123.208L860.803 126.311ZM921.525 218H892.082V224H921.525V218ZM894.675 219.491L842.819 130.428L837.634 133.447L889.489 222.509L894.675 219.491ZM840.227 128.938H795.549V134.938H840.227V128.938ZM795.549 113.551H829.68V107.551H795.549V113.551ZM829.68 113.551C847.547 113.551 861.292 110.046 870.288 102.442L866.415 97.8592C859.005 104.122 846.969 107.551 829.68 107.551V113.551ZM870.304 102.428C879.355 94.6698 883.656 83.2225 883.656 68.6562H877.656C877.656 82.0197 873.754 91.5685 866.399 97.8726L870.304 102.428ZM883.656 68.6562C883.656 53.9091 879.258 42.636 869.85 35.6343L866.268 40.4477C873.656 45.946 877.656 55.0831 877.656 68.6562H883.656ZM869.863 35.6444C860.772 28.7996 846.583 25.666 827.922 25.666V31.666C846.175 31.666 858.743 34.7825 866.254 40.4376L869.863 35.6444ZM827.922 25.666H795.549V31.666H827.922V25.666ZM792.549 28.666V110.551H798.549V28.666H792.549ZM1090.71 221L1087.92 222.093L1088.67 224H1090.71V221ZM1064.05 152.885L1066.85 151.791L1066.1 149.885H1064.05V152.885ZM978.215 152.885V149.885H976.159L975.417 151.802L978.215 152.885ZM951.848 221V224H953.903L954.645 222.083L951.848 221ZM926.652 221L923.861 219.901L922.247 224H926.652V221ZM1011.32 5.96094V2.96094H1009.28L1008.53 4.86186L1011.32 5.96094ZM1032.27 5.96094L1035.06 4.86681L1034.31 2.96094H1032.27V5.96094ZM1116.5 221V224H1120.89L1119.29 219.906L1116.5 221ZM1056.29 130.473V133.473H1060.62L1059.1 129.419L1056.29 130.473ZM1031.39 64.1152L1034.2 63.0612L1034.19 63.0508L1034.19 63.0405L1031.39 64.1152ZM1021.43 33.207L1024.32 32.3981L1018.5 32.5369L1021.43 33.207ZM1012.2 64.1152L1015 65.1801L1015.01 65.1515L1015.02 65.1227L1012.2 64.1152ZM987.004 130.473L984.199 129.408L982.656 133.473H987.004V130.473ZM1093.51 219.907L1066.85 151.791L1061.26 153.978L1087.92 222.093L1093.51 219.907ZM1064.05 149.885H978.215V155.885H1064.05V149.885ZM975.417 151.802L949.05 219.917L954.645 222.083L981.013 153.968L975.417 151.802ZM951.848 218H926.652V224H951.848V218ZM929.444 222.099L1014.11 7.06001L1008.53 4.86186L923.861 219.901L929.444 222.099ZM1011.32 8.96094H1032.27V2.96094H1011.32V8.96094ZM1029.47 7.05507L1113.7 222.094L1119.29 219.906L1035.06 4.86681L1029.47 7.05507ZM1116.5 218H1090.71V224H1116.5V218ZM1059.1 129.419L1034.2 63.0612L1028.58 65.1693L1053.48 131.527L1059.1 129.419ZM1034.19 63.0405C1031.01 54.7564 1027.72 44.5484 1024.32 32.3981L1018.54 34.0159C1021.97 46.2797 1025.32 56.6772 1028.59 65.19L1034.19 63.0405ZM1018.5 32.5369C1016.39 41.7744 1013.35 51.9628 1009.37 63.1078L1015.02 65.1227C1019.06 53.8068 1022.17 43.3896 1024.35 33.8772L1018.5 32.5369ZM1009.39 63.0503L984.199 129.408L989.809 131.538L1015 65.1801L1009.39 63.0503ZM987.004 133.473H1056.29V127.473H987.004V133.473ZM1313.22 221V224H1316.22V221H1313.22ZM1284.81 221L1282.29 222.637L1283.18 224H1284.81V221ZM1167.77 41.2637L1170.28 39.6266L1169.39 38.2637H1167.77V41.2637ZM1166.59 41.2637V38.2637H1163.36L1163.6 41.4853L1166.59 41.2637ZM1168.94 221V224H1171.94V221H1168.94ZM1145.94 221H1142.94V224H1145.94V221ZM1145.94 6.83984V3.83984H1142.94V6.83984H1145.94ZM1174.06 6.83984L1176.58 5.20098L1175.69 3.83984H1174.06V6.83984ZM1290.81 185.844L1288.3 187.483L1289.19 188.844H1290.81V185.844ZM1291.98 185.844V188.844H1295.21L1294.98 185.622L1291.98 185.844ZM1290.67 160.502L1287.67 160.645L1287.67 160.646L1290.67 160.502ZM1289.93 129.74L1292.93 129.835L1292.93 129.788V129.74H1289.93ZM1289.93 6.83984V3.83984H1286.93V6.83984H1289.93ZM1313.22 6.83984H1316.22V3.83984H1313.22V6.83984ZM1313.22 218H1284.81V224H1313.22V218ZM1287.32 219.363L1170.28 39.6266L1165.25 42.9007L1282.29 222.637L1287.32 219.363ZM1167.77 38.2637H1166.59V44.2637H1167.77V38.2637ZM1163.6 41.4853C1165.16 62.5195 1165.94 81.7803 1165.94 99.2715H1171.94C1171.94 81.6064 1171.15 62.1953 1169.59 41.0421L1163.6 41.4853ZM1165.94 99.2715V221H1171.94V99.2715H1165.94ZM1168.94 218H1145.94V224H1168.94V218ZM1148.94 221V6.83984H1142.94V221H1148.94ZM1145.94 9.83984H1174.06V3.83984H1145.94V9.83984ZM1171.55 8.47871L1288.3 187.483L1293.33 184.205L1176.58 5.20098L1171.55 8.47871ZM1290.81 188.844H1291.98V182.844H1290.81V188.844ZM1294.98 185.622C1294.78 183.035 1294.35 174.638 1293.66 160.358L1287.67 160.646C1288.35 174.881 1288.79 183.379 1288.99 186.065L1294.98 185.622ZM1293.66 160.359C1292.98 146.007 1292.74 135.858 1292.93 129.835L1286.94 129.645C1286.74 135.928 1286.99 146.286 1287.67 160.645L1293.66 160.359ZM1292.93 129.74V6.83984H1286.93V129.74H1292.93ZM1289.93 9.83984H1313.22V3.83984H1289.93V9.83984ZM1310.22 6.83984V221H1316.22V6.83984H1310.22ZM1438.03 221V224H1441.03V221H1438.03ZM1413.13 221H1410.13V224H1413.13V221ZM1413.13 28.959H1416.13V25.959H1413.13V28.959ZM1345.3 28.959H1342.3V31.959H1345.3V28.959ZM1345.3 6.83984V3.83984H1342.3V6.83984H1345.3ZM1505.85 6.83984H1508.85V3.83984H1505.85V6.83984ZM1505.85 28.959V31.959H1508.85V28.959H1505.85ZM1438.03 28.959V25.959H1435.03V28.959H1438.03ZM1438.03 218H1413.13V224H1438.03V218ZM1416.13 221V28.959H1410.13V221H1416.13ZM1413.13 25.959H1345.3V31.959H1413.13V25.959ZM1348.3 28.959V6.83984H1342.3V28.959H1348.3ZM1345.3 9.83984H1505.85V3.83984H1345.3V9.83984ZM1502.85 6.83984V28.959H1508.85V6.83984H1502.85ZM1505.85 25.959H1438.03V31.959H1505.85V25.959ZM1435.03 28.959V221H1441.03V28.959H1435.03Z" fill="#DADADA" fill-opacity="0.2"/>
</svg>
