<svg width="113" height="26" viewBox="0 0 113 26" fill="none" xmlns="http://www.w3.org/2000/svg">
<path d="M0.576 0.727999H5.148C5.628 0.727999 6.024 0.919999 6.336 1.304L19.296 18.152V1.16C19.296 1.04 19.332 0.943999 19.404 0.872C19.5 0.775999 19.608 0.727999 19.728 0.727999H23.436C23.556 0.727999 23.652 0.775999 23.724 0.872C23.82 0.943999 23.868 1.04 23.868 1.16V25.496C23.868 25.784 23.724 25.928 23.436 25.928H20.016C19.536 25.928 19.14 25.736 18.828 25.352L0.324 1.232C0.228 1.136 0.216 1.028 0.288 0.907999C0.36 0.787999 0.456 0.727999 0.576 0.727999ZM26.7615 25.496L45.2655 1.376C45.5775 0.991999 45.9735 0.799998 46.4535 0.799998H49.8735C50.1615 0.799998 50.3055 0.943999 50.3055 1.232V18.224L63.2655 1.376C63.5775 0.991999 63.9735 0.799998 64.4535 0.799998H67.8735C68.1615 0.799998 68.3055 0.943999 68.3055 1.232V25.568C68.3055 25.856 68.1615 26 67.8735 26H64.1655C63.8535 26 63.6975 25.856 63.6975 25.568V8.576L50.7735 25.424C50.4615 25.808 50.0655 26 49.5855 26H46.1655C45.8775 26 45.7335 25.856 45.7335 25.568V8.576L32.7735 25.424C32.4615 25.808 32.0655 26 31.5855 26H27.0135C26.8935 26 26.7975 25.952 26.7255 25.856C26.6535 25.736 26.6655 25.616 26.7615 25.496ZM71.451 0.727999H76.023C76.503 0.727999 76.899 0.919999 77.211 1.304L90.171 18.152V1.16C90.171 1.04 90.207 0.943999 90.279 0.872C90.375 0.775999 90.483 0.727999 90.603 0.727999H94.023C94.503 0.727999 94.899 0.919999 95.211 1.304L108.135 18.152V1.16C108.135 1.04 108.183 0.943999 108.279 0.872C108.375 0.775999 108.483 0.727999 108.603 0.727999H112.311C112.431 0.727999 112.527 0.775999 112.599 0.872C112.695 0.943999 112.743 1.04 112.743 1.16V25.496C112.743 25.784 112.599 25.928 112.311 25.928H108.891C108.411 25.928 108.015 25.736 107.703 25.352L94.743 8.504V25.496C94.743 25.784 94.599 25.928 94.311 25.928H90.891C90.411 25.928 90.015 25.736 89.703 25.352L71.199 1.232C71.103 1.136 71.091 1.028 71.163 0.907999C71.235 0.787999 71.331 0.727999 71.451 0.727999Z" fill="#FAFAFA"/>
</svg>
