<svg width="20" height="36" viewBox="0 0 20 36" fill="none" xmlns="http://www.w3.org/2000/svg">
<mask id="path-1-outside-1" maskUnits="userSpaceOnUse" x="0" y="0" width="20" height="36" fill="black">
<rect fill="white" width="20" height="36"/>
<path d="M2 2L18 17.7144L2 33.4288"/>
</mask>
<path d="M3.40142 0.57311C2.61337 -0.200875 1.34709 -0.189472 0.57311 0.598578C-0.200875 1.38663 -0.189472 2.65291 0.598578 3.42689L3.40142 0.57311ZM18 17.7144L19.4014 19.1413C19.7843 18.7653 20 18.2511 20 17.7144C20 17.1777 19.7843 16.6636 19.4014 16.2875L18 17.7144ZM0.598578 32.0019C-0.189472 32.7759 -0.200875 34.0422 0.57311 34.8303C1.34709 35.6183 2.61337 35.6297 3.40142 34.8557L0.598578 32.0019ZM0.598578 3.42689L16.5986 19.1413L19.4014 16.2875L3.40142 0.57311L0.598578 3.42689ZM16.5986 16.2875L0.598578 32.0019L3.40142 34.8557L19.4014 19.1413L16.5986 16.2875Z" fill="#FA4454" mask="url(#path-1-outside-1)"/>
</svg>
