<svg width="20" height="36" viewBox="0 0 20 36" fill="none" xmlns="http://www.w3.org/2000/svg">
<mask id="path-1-outside-1" maskUnits="userSpaceOnUse" x="0" y="0" width="20" height="36" fill="black">
<rect fill="white" width="20" height="36"/>
<path d="M18 2L2 17.7144L18 33.4288"/>
</mask>
<path d="M19.4014 3.42689C20.1895 2.65291 20.2009 1.38663 19.4269 0.598578C18.6529 -0.189472 17.3866 -0.200875 16.5986 0.57311L19.4014 3.42689ZM2 17.7144L0.598578 16.2875C0.215689 16.6636 0 17.1777 0 17.7144C0 18.2511 0.215689 18.7653 0.598578 19.1413L2 17.7144ZM16.5986 34.8557C17.3866 35.6297 18.6529 35.6183 19.4269 34.8303C20.2009 34.0422 20.1895 32.7759 19.4014 32.0019L16.5986 34.8557ZM16.5986 0.57311L0.598578 16.2875L3.40142 19.1413L19.4014 3.42689L16.5986 0.57311ZM0.598578 19.1413L16.5986 34.8557L19.4014 32.0019L3.40142 16.2875L0.598578 19.1413Z" fill="#FA4454" mask="url(#path-1-outside-1)"/>
</svg>
