<svg width="32" height="32" viewBox="0 0 32 32" fill="none" xmlns="http://www.w3.org/2000/svg">
<path d="M29.428 0H2.572C1.152 0 0 1.152 0 2.572V29.428C0 30.848 1.152 32 2.572 32H29.428C30.848 32 32 30.848 32 29.428V2.572C32 1.152 30.848 0 29.428 0ZM29.428 29.44C11.516 29.436 2.56 29.432 2.56 29.428C2.564 11.516 2.568 2.56 2.572 2.56C20.484 2.564 29.44 2.568 29.44 2.572C29.436 20.484 29.432 29.44 29.428 29.44ZM4.744 11.996H9.492V27.268H4.744V11.996ZM7.12 9.908C8.636 9.908 9.872 8.676 9.872 7.156C9.872 6.7946 9.80082 6.43674 9.66252 6.10286C9.52422 5.76897 9.3215 5.46559 9.06596 5.21004C8.81041 4.95449 8.50703 4.75178 8.17314 4.61348C7.83926 4.47518 7.4814 4.404 7.12 4.404C6.7586 4.404 6.40074 4.47518 6.06686 4.61348C5.73297 4.75178 5.42959 4.95449 5.17404 5.21004C4.9185 5.46559 4.71578 5.76897 4.57748 6.10286C4.43918 6.43674 4.368 6.7946 4.368 7.156C4.364 8.676 5.596 9.908 7.12 9.908ZM17.212 19.712C17.212 17.72 17.592 15.792 20.06 15.792C22.492 15.792 22.528 18.068 22.528 19.84V27.268H27.272V18.892C27.272 14.78 26.384 11.616 21.58 11.616C19.272 11.616 17.724 12.884 17.088 14.084H17.024V11.996H12.468V27.268H17.212V19.712Z" fill="#DC3D4B"/>
</svg>
