<svg width="60" height="60" viewBox="0 0 60 60" fill="none" xmlns="http://www.w3.org/2000/svg">
<path d="M33.0346 30L48.4155 11.666C48.6733 11.3613 48.4565 10.8984 48.0581 10.8984H43.3823C43.1069 10.8984 42.8432 11.0215 42.6616 11.2324L29.9761 26.3555L17.2905 11.2324C17.1147 11.0215 16.8511 10.8984 16.5698 10.8984H11.894C11.4956 10.8984 11.2788 11.3613 11.5366 11.666L26.9175 30L11.5366 48.334C11.4788 48.4019 11.4418 48.485 11.4298 48.5733C11.4179 48.6616 11.4315 48.7516 11.4692 48.8324C11.5068 48.9132 11.5668 48.9815 11.6422 49.0292C11.7175 49.0769 11.8049 49.1021 11.894 49.1016H16.5698C16.8452 49.1016 17.1089 48.9785 17.2905 48.7676L29.9761 33.6445L42.6616 48.7676C42.8374 48.9785 43.1011 49.1016 43.3823 49.1016H48.0581C48.4565 49.1016 48.6733 48.6387 48.4155 48.334L33.0346 30Z" fill="#FAFAFA"/>
</svg>
