<svg width="32" height="32" viewBox="0 0 32 32" fill="none" xmlns="http://www.w3.org/2000/svg">
<path d="M28.5714 0H3.42857C1.53571 0 0 1.53571 0 3.42857V28.5714C0 30.4643 1.53571 32 3.42857 32H28.5714C30.4643 32 32 30.4643 32 28.5714V3.42857C32 1.53571 30.4643 0 28.5714 0ZM25.0786 11.3429C25.0929 11.5429 25.0929 11.75 25.0929 11.95C25.0929 18.1429 20.3786 25.2786 11.7643 25.2786C9.10714 25.2786 6.64286 24.5071 4.57143 23.1786C4.95 23.2214 5.31429 23.2357 5.7 23.2357C7.89286 23.2357 9.90714 22.4929 11.5143 21.2357C9.45714 21.1929 7.72857 19.8429 7.13571 17.9857C7.85714 18.0929 8.50714 18.0929 9.25 17.9C7.10714 17.4643 5.5 15.5786 5.5 13.3V13.2429C6.12143 13.5929 6.85 13.8071 7.61429 13.8357C6.97173 13.4083 6.44499 12.8285 6.08105 12.148C5.71711 11.4675 5.52731 10.7074 5.52857 9.93571C5.52857 9.06429 5.75714 8.26429 6.16429 7.57143C8.47143 10.4143 11.9357 12.2714 15.8214 12.4714C15.1571 9.29286 17.5357 6.71429 20.3929 6.71429C21.7429 6.71429 22.9571 7.27857 23.8143 8.19286C24.8714 7.99286 25.8857 7.6 26.7857 7.06429C26.4357 8.15 25.7 9.06429 24.7286 9.64286C25.6714 9.54286 26.5857 9.27857 27.4286 8.91429C26.7929 9.85 25.9929 10.6786 25.0786 11.3429Z" fill="#DC3D4B"/>
</svg>
